<svg width="278" height="45" viewBox="0 0 278 45" fill="none" xmlns="http://www.w3.org/2000/svg">
<path d="M15.7311 35.3596C15.9711 36.3196 15.4311 37.1596 14.5311 37.9996C14.4711 38.0596 14.4111 38.0596 14.3511 38.1196H14.2911C14.7711 37.2196 15.2511 36.2596 15.7311 35.3596C16.0911 34.8796 16.3911 34.3996 16.0911 33.9196C15.4911 34.1596 15.2511 34.5796 15.0111 35.0596C14.8911 35.2996 14.8311 35.5996 14.6511 35.8396C13.5111 37.5796 12.0711 38.9596 10.3311 40.1596C9.85107 40.4596 9.49107 40.4596 9.31107 40.0996C8.89107 39.4396 8.35107 38.8996 8.05107 38.1796C7.63107 36.7396 7.21107 35.2996 6.91107 33.8596C6.79107 33.4996 6.91107 33.0196 6.91107 32.5996C7.03107 32.0596 7.21107 31.4596 7.39107 30.7396C7.15107 30.9796 7.03107 31.0396 6.97107 31.2196C7.03107 30.6796 6.97107 30.1396 7.21107 29.7196C7.39107 29.4196 7.45107 29.1796 7.45107 28.9396C7.45107 28.6396 7.75107 28.3396 7.87107 28.0996C8.59107 26.1196 9.19107 24.1996 10.1511 22.2796C11.1111 20.5396 12.0711 18.8596 13.0911 17.1196C14.5911 14.5996 16.3311 12.2596 18.5511 10.1596C20.0511 8.65964 21.7311 7.27963 23.6511 6.25964C24.7911 5.65963 25.7511 5.65963 26.7711 6.13964C26.4711 6.37964 26.1711 6.61964 25.8711 6.85964C24.8511 7.75964 23.8311 8.59964 22.8111 9.61964C19.8111 12.6196 17.2311 15.9196 14.9511 19.3996C14.0511 20.7196 13.3911 22.0996 13.0311 23.5396C12.7911 24.4996 12.7311 25.3396 13.6311 25.7596C13.7511 25.8196 13.7511 25.9396 13.8111 25.9996C14.0511 26.5396 14.5311 26.5996 15.2511 26.2996C15.4311 26.2396 15.6711 26.2396 15.8511 26.1196C16.5111 25.7596 16.8711 25.9996 17.1111 26.4196C17.5911 26.0596 17.9511 25.8196 18.3111 25.5196C18.4311 25.0396 18.4911 24.4996 18.7311 24.0196C19.3911 22.7596 20.0511 21.4396 20.8911 20.2396C22.8111 17.2996 25.0311 14.5996 27.3111 11.8396C27.5511 11.5996 27.7911 11.2396 28.0311 10.9396C27.7311 11.1196 27.4911 11.2996 27.1911 11.4796C27.0711 11.7196 26.8911 12.0196 26.7711 12.1996C25.1511 14.2396 23.5311 16.2796 21.9711 18.3196C20.5911 20.0596 19.3911 21.9196 18.6111 23.8996C18.5511 24.0196 18.4311 24.1996 18.3711 24.3796C18.3711 23.5996 18.4911 23.0596 19.1511 21.9796C19.8111 20.8996 20.4111 19.8196 21.1911 18.7996C22.7511 16.7596 24.3111 14.8396 25.9311 12.8596C26.2911 12.3796 26.7711 11.9596 27.1911 11.4796C27.4911 11.2396 27.6111 10.6996 28.1511 10.8196C28.3311 10.5796 28.5111 10.3396 28.6911 10.1596C29.1111 9.79963 29.6511 9.43964 30.0111 9.07964C30.9111 8.23964 31.7511 7.39964 32.5311 6.61964C32.2911 6.55964 32.3511 6.37964 32.5311 6.13964C32.8911 5.65963 32.7711 5.29963 32.4111 5.05963C32.0511 4.69964 31.6311 4.39964 31.2111 4.09964C29.1111 2.95964 26.7111 2.23964 24.1911 1.87964C22.2711 1.51964 20.3511 1.99963 18.3711 3.07964C16.3311 4.15964 14.5311 5.53964 12.7911 7.09964C9.01107 10.5796 6.07107 14.5396 3.97107 18.9196C1.63107 23.4796 0.191072 27.9796 0.251072 32.5396C0.311072 37.1596 2.11107 40.6996 5.65107 43.0996C6.61107 43.7596 7.69107 44.1196 9.01107 44.0596C9.85107 43.9996 10.6911 43.9396 11.5311 43.8796C12.4311 43.8196 13.2711 43.5196 14.0511 42.9196C15.6111 41.7796 16.9911 40.3996 18.1311 38.8396C18.3111 38.5996 18.4311 38.3596 18.5511 38.1796C18.4911 38.1796 18.5511 38.1196 18.4911 38.1196C18.1311 38.5996 17.6511 39.0796 17.2311 39.5596C17.3511 39.1996 17.5311 38.8996 17.7111 38.6596C18.1911 37.9396 18.6111 37.1596 19.0311 36.4396C19.2711 35.9596 19.5111 35.3596 19.2111 34.9396C18.9711 34.6396 18.6111 34.4596 18.3111 34.2196C18.1911 34.3396 17.9511 34.4596 17.8311 34.5196C17.7111 34.3396 17.4711 34.1596 17.2911 33.8596C16.9311 34.3996 16.7511 34.7596 16.5111 35.1796C16.2711 35.6596 15.9711 35.5996 15.7311 35.3596ZM14.7711 12.3196C14.8911 12.0796 15.0111 11.8396 15.1911 11.5996C15.2511 11.6596 15.3111 11.6596 15.3711 11.7196C15.1311 11.8996 14.9511 12.0796 14.7111 12.2596C14.6511 12.4396 14.5311 12.6796 14.4711 12.7996C12.7311 15.2596 11.1711 17.7196 9.73107 20.2996C9.67107 20.4196 9.55107 20.5996 9.37107 20.7196C10.2111 18.8596 11.2311 17.1196 12.3111 15.3796C12.8511 14.4796 13.5711 13.6396 14.2311 12.7996C14.3511 12.6196 14.5311 12.4396 14.7711 12.3196ZM7.45107 28.2196C8.17107 23.7796 13.2111 14.1796 16.9911 11.1196C16.7511 11.6596 16.2711 12.0796 15.9111 12.5596C15.4911 13.0996 15.0711 13.6396 14.5911 14.2396C14.2311 14.7196 13.8711 15.2596 13.4511 15.7996C13.0911 16.3996 12.7311 16.9996 12.4311 17.5396C12.0711 18.1396 11.7711 18.6796 11.4111 19.2196C11.0511 19.8196 10.7511 20.3596 10.4511 20.9596C10.2111 21.5596 9.97107 22.1596 9.67107 22.7596C9.43107 23.3596 9.13107 23.8996 8.89107 24.4996C8.65107 25.0996 8.41107 25.6996 8.23107 26.2996C7.99107 26.8996 7.69107 27.4996 7.45107 28.2196ZM15.1311 21.5596C15.4311 20.8996 15.7311 20.1796 16.1511 19.5196C18.3111 16.3996 20.5911 13.3396 23.3511 10.5796C23.6511 10.2796 23.9511 9.97964 24.3111 9.67964C24.3711 9.67964 24.4311 9.67964 24.3711 9.73964C24.3711 9.73964 24.4311 9.79963 24.3711 9.79963C21.7911 12.8596 19.1511 15.9796 16.8711 19.2796C16.3311 19.9996 15.8511 20.7796 15.3711 21.4996C15.3111 21.4996 15.3111 21.5596 15.2511 21.5596C15.2511 21.5596 15.2511 21.5596 15.1311 21.5596ZM6.85107 16.9996C8.59107 13.5196 10.9911 10.4596 14.2311 7.87963C11.6511 10.8796 9.07107 13.8196 6.85107 16.9996ZM8.53107 18.0796C9.49107 16.3996 10.3311 14.7196 11.8311 13.3396C10.7511 14.9596 9.73107 16.5796 8.71107 18.1996C8.65107 18.1396 8.59107 18.1396 8.53107 18.0796ZM18.1311 22.8196C18.3711 21.6196 19.9911 19.0396 21.4911 17.3596C20.3511 19.2796 19.2111 21.0196 18.1311 22.8196ZM16.8111 21.7396C17.3511 20.8396 17.8911 19.9396 18.4311 19.0396C18.4911 19.0396 18.6111 19.0396 18.6711 19.0996C18.1311 19.9996 17.5311 20.9596 16.9911 21.9196C16.9311 21.8596 16.8711 21.7996 16.8111 21.7396ZM17.5911 37.7596C17.8311 37.3996 18.0711 37.0396 18.2511 36.7396C18.3111 36.7396 18.3711 36.7996 18.4311 36.7996C18.1911 37.1596 17.9511 37.5196 17.7711 37.8196C17.7111 37.8196 17.6511 37.7596 17.5911 37.7596Z" fill="url(#paint0_linear_1126_7797)"/>
<path d="M40.4773 28.8796C40.4773 28.8196 40.4773 28.8196 40.4773 28.8196V28.8796ZM32.6773 21.0196C32.6773 20.9596 32.6773 20.9596 32.7373 20.8996C32.6773 20.9596 32.6773 20.9596 32.6773 20.9596V21.0196ZM41.3773 27.8596C43.1773 25.9396 44.5573 23.7796 45.7573 21.4996C46.4773 20.1796 47.1373 18.8596 47.1373 17.4196C47.1973 17.0596 47.1973 16.5796 47.0173 16.2796C46.7773 15.7396 46.4173 15.2596 45.9373 14.8996C43.7773 13.2196 40.9573 12.9196 37.7773 13.9396C37.0573 14.1796 36.4573 13.8796 35.7373 14.1196H35.6173C35.3173 13.6396 34.8373 13.8796 34.4173 14.1196C33.5773 14.5396 32.7373 15.0796 31.9573 15.6196C29.3773 17.5396 27.2773 19.9396 25.6573 22.5796C24.8773 23.8996 24.1573 25.2196 23.8573 26.6596C23.8573 26.7796 23.9773 26.9596 23.9173 27.0796C23.7973 27.3796 23.5573 27.6796 23.5573 27.9196C23.5573 28.9396 23.4973 29.9596 23.7973 30.8596C24.0973 32.0596 24.9373 32.8396 25.8373 33.5596C26.6173 34.0996 27.5773 34.2196 28.5973 34.2796C29.2573 34.2796 30.0373 34.0396 30.6973 34.0396C31.2373 33.9796 31.7173 33.9796 32.1373 33.4996C32.2573 33.3796 32.4373 33.3796 32.6173 33.3796C32.7373 33.2596 32.9773 33.2596 33.1573 33.1396C33.3973 33.0196 33.5773 32.8396 33.7573 32.7796C33.6973 32.5996 33.7573 32.4796 33.6973 32.3596C33.7573 32.2996 33.9973 32.2396 33.9973 32.2396C34.1773 32.6596 34.7173 32.0596 34.9573 32.2396C34.9573 32.2396 35.3173 31.9996 35.3773 31.8796C35.3773 31.2796 35.8573 30.9796 36.3373 30.7396C36.6973 30.5596 36.8773 30.1396 37.2373 30.0796C37.7173 29.8996 38.1373 29.4796 38.5573 29.2396C38.7973 29.1196 39.0373 29.0596 39.2773 28.9396C39.4573 29.5396 39.5173 29.5396 40.1173 29.1196C40.1773 29.0596 40.3573 28.9396 40.4773 28.8796C40.5373 28.6996 40.5373 28.5796 40.7173 28.4596C40.8973 28.2196 41.1373 28.0996 41.3773 27.8596ZM45.1573 21.4996C44.4973 23.3596 43.2373 25.0396 41.6773 26.5396C42.8773 24.8596 43.9573 23.1796 45.1573 21.4996ZM43.8373 20.4796C43.9573 20.8996 43.6573 21.2596 43.5373 21.5596C42.9973 22.7596 42.2173 23.8996 41.4973 24.6196C42.2773 23.1796 42.9973 21.8596 43.8373 20.4796ZM25.8373 24.9196C25.7173 25.0396 25.5973 25.0996 25.4773 25.2196C26.4373 22.4596 28.3573 20.2396 30.6973 18.1996C30.5773 18.3196 30.5773 18.4396 30.4573 18.5596C29.4373 19.8196 28.4773 21.0196 27.5173 22.2796C26.9773 23.1196 26.4373 24.0196 25.8373 24.9196ZM27.2173 25.3396C27.1573 25.3396 27.1573 25.2796 27.0973 25.2796C27.6973 24.1996 28.1773 23.0596 29.1373 22.1596C28.4773 23.1796 27.8773 24.2596 27.2173 25.3396ZM31.4773 21.0796C30.4573 22.6396 29.4973 24.1996 28.4773 25.7596C29.0773 24.0796 30.0973 22.5196 31.4773 21.0796ZM30.8173 30.8596C30.4573 31.0396 30.1573 31.1596 29.7373 31.2796C29.0773 31.4596 29.0173 31.4596 28.7173 30.8596C28.1773 29.6596 28.2973 28.2196 28.7773 26.7196C29.4973 24.0796 31.2973 21.8596 33.3973 19.7596C33.4573 19.6996 33.5173 19.6996 33.6973 19.5796C33.3373 20.0596 33.0973 20.4796 32.7373 20.8996C33.0373 20.6596 33.2773 20.3596 33.5773 20.0596C34.4173 19.1596 35.3173 18.3796 36.4573 17.8996C36.4573 18.0796 36.3973 18.2596 36.3973 18.4996C36.8773 18.1996 37.2973 18.0196 37.6573 17.7796C38.6173 17.1196 39.5773 16.6996 40.5973 16.4596C41.3173 16.2796 41.5573 16.3996 41.5573 17.1196C41.5573 18.6196 40.9573 20.1196 40.0573 21.6196C39.1573 23.2396 38.1373 24.7996 36.8173 26.2396C35.1373 28.0996 33.2173 29.7796 30.8173 30.8596ZM36.5173 28.4596C36.3973 28.5796 36.2173 28.5796 35.9173 28.6396C37.0573 27.3196 38.1373 26.2396 39.0373 25.0996C39.8773 23.9596 40.5373 22.7596 41.4373 21.4996C41.4373 21.4996 41.5573 21.4996 41.6773 21.4996C40.5973 24.1996 38.6773 26.4196 36.5173 28.4596ZM39.2773 28.9396C39.6973 28.2796 40.2973 27.7996 40.9573 27.3796C40.4173 27.9196 39.9373 28.5796 39.2773 28.9396ZM46.7773 20.7796C46.8373 20.5396 46.9573 20.2396 46.9573 19.8196C46.6573 20.2396 46.6573 20.5396 46.7773 20.8396V20.7796ZM46.2973 21.2596C45.7573 22.4596 45.0973 23.5396 44.3173 24.6196C44.1373 24.8596 44.0173 25.0996 43.8973 25.3996C44.6173 24.6796 45.1573 23.8396 45.5773 22.9996C45.9373 22.2796 46.4173 21.5596 46.7773 20.8396C46.5373 20.8396 46.3573 21.0196 46.2973 21.2596ZM41.7373 28.0996C42.3373 27.4396 43.0573 26.7196 43.4173 25.8796C42.8173 26.5996 42.2173 27.3196 41.6173 27.9796C41.6173 28.0396 41.6773 28.0396 41.7373 28.0996ZM40.8973 28.7596C40.7173 28.8196 40.5973 28.8196 40.4773 28.8796C40.6573 29.1196 40.6573 29.0596 40.8973 28.7596ZM29.6173 25.2796C29.6773 25.2796 29.7373 25.2796 29.7973 25.2796C30.2173 24.5596 30.7573 23.8396 31.1773 23.0596C31.3573 22.8196 31.4773 22.5196 31.7173 22.2196C31.2373 22.8196 30.7573 23.4196 30.3973 24.0196C30.0973 24.3796 29.8573 24.8596 29.6173 25.2796ZM31.7173 22.2196C31.7173 22.1596 31.7173 22.1596 31.7773 22.0996H31.7173C31.7173 22.1596 31.7173 22.1596 31.7173 22.2196ZM28.8373 27.2596C28.8373 27.2596 28.8973 27.2596 28.9573 27.2596C29.0173 27.0196 29.1973 26.7196 29.2573 26.4196C29.2573 26.4196 29.1973 26.4196 29.1373 26.4196C29.0773 26.7196 28.8973 27.0196 28.8373 27.2596ZM32.6773 21.0196V20.9596C32.6773 21.0196 32.6173 21.0196 32.6173 21.0196C32.6773 21.0196 32.6773 21.0196 32.6773 21.0196ZM31.8373 22.0396C32.1973 21.7396 32.4973 21.4396 32.6173 21.0196C32.2573 21.2596 31.9573 21.6196 31.8373 22.0396ZM31.7773 22.0996C31.7773 22.0996 31.7773 22.0996 31.8373 22.0396C31.8373 22.0396 31.7773 22.0996 31.7173 22.0996H31.7773Z" fill="url(#paint1_linear_1126_7797)"/>
<path d="M55.0615 16.9396C56.6215 11.9596 58.1215 7.03963 59.6215 2.17964C59.8015 1.75963 59.8015 1.39964 59.8015 0.979637C59.8015 0.979637 59.7415 0.919635 59.6815 0.859635C59.5615 0.979637 59.3815 1.03964 59.2615 1.09964C59.0215 0.739637 58.9015 0.199637 58.1215 0.379634C57.9415 0.859635 57.8215 1.45963 57.5815 1.99963C57.4015 2.29963 57.2215 2.65964 57.1015 2.95964C57.3415 2.05963 57.7015 1.15964 57.4615 0.319635C57.2815 0.319635 57.1015 0.259636 57.0415 0.319635C56.6815 0.679634 56.4415 1.09964 56.1415 1.45963H56.0815C56.0815 1.27964 56.0215 1.03964 55.9615 0.859635C55.8415 0.439637 55.5415 0.379634 55.2415 0.739637C54.8815 1.15963 54.5215 1.57964 54.2815 1.99963C53.8615 2.71964 53.6215 3.49964 53.3815 4.21964C51.5815 9.73964 50.0215 15.1996 48.6415 20.6596C47.8015 24.2596 46.9615 27.8596 46.2415 31.3996C46.0015 32.7796 45.8215 34.0396 45.5815 35.3596C45.5215 35.8996 45.5815 36.3796 45.7015 36.7996C45.7615 36.9196 46.0015 37.0396 46.1815 36.9796C46.4815 36.9196 46.6015 36.6796 46.6015 36.4396C46.6015 36.2596 46.6615 36.0196 46.6615 35.8396C46.7215 34.9396 46.8415 33.9796 46.9015 33.1396C47.3815 31.0396 47.8615 28.9396 48.3415 26.8396C49.4815 21.9796 50.7415 17.2396 52.1215 12.4396C52.8415 9.97964 53.6815 7.51964 54.3415 4.99964C54.5815 4.33964 54.8215 3.67963 55.1215 2.89963C55.5415 3.25964 55.3615 3.67963 55.2415 4.03964C54.9415 4.87964 54.6415 5.77964 54.3415 6.61964C52.3015 13.5796 50.1415 20.5396 48.6415 27.4996C48.0415 30.2596 47.4415 33.0196 46.9015 35.8396C46.8415 36.1996 46.7815 36.5596 46.8415 36.9196C46.8415 37.2196 47.0815 37.3396 47.3815 37.2796C47.6215 37.2196 47.8615 37.0396 47.9215 36.7396C47.9815 36.3796 48.0415 35.9596 48.1015 35.4796C48.2815 35.7796 48.3415 36.0196 48.4615 36.2596C49.1215 36.1996 49.3015 35.5396 49.6015 35.0596C49.6615 35.3596 49.4815 35.7796 49.8415 35.9596C49.8415 35.8396 49.9615 35.7196 49.9015 35.5996C50.3815 33.7996 50.7415 31.9996 51.2215 30.1996C51.5215 28.9996 51.9415 27.7396 52.3015 26.5396C52.3615 26.2396 52.4215 25.8796 52.4815 25.5196C53.3815 22.6996 54.1615 19.8196 55.0615 16.9396ZM55.9015 12.1996C55.8415 12.1996 55.7815 12.1996 55.7815 12.1996C55.8415 12.0796 55.8415 11.8996 55.9015 11.7196C55.9615 11.7196 56.0215 11.7796 56.0215 11.7796C55.9615 11.8996 55.9615 12.0196 55.9015 12.1996ZM58.7815 3.37964C58.2415 5.53964 57.5815 7.69964 56.6215 9.85964C57.2215 7.63964 57.8815 5.47964 58.7815 3.37964ZM55.5415 7.69964C55.5415 7.51964 55.6615 7.33964 55.6015 7.21964C55.7815 5.95964 56.4415 4.81963 56.9215 3.61964C56.9815 3.43963 57.0415 3.19964 57.1015 2.95964C57.1015 3.25964 57.1015 3.43963 57.0415 3.67963C56.5015 5.23964 56.0215 6.79964 55.3615 8.29964C55.4815 8.11963 55.4215 7.93964 55.5415 7.69964ZM59.7415 3.43963C58.7215 6.61964 57.6415 9.79963 56.6815 12.8596C55.4815 16.5796 54.4015 20.1796 53.2015 23.8996C52.9015 24.7996 52.6015 25.6396 52.3015 26.5396C52.2415 26.7196 52.2415 26.9596 52.2415 27.1996C51.7015 29.0596 51.2215 30.9796 50.7415 32.8396C50.5615 33.6196 50.4415 34.4596 50.2615 35.1796C50.6215 34.2196 50.8015 33.1996 51.1015 32.2396C52.6615 25.9996 54.6415 19.7596 56.6815 13.5196C57.7615 10.3996 58.7215 7.33964 59.8015 4.15964C60.0415 3.37964 60.1615 2.53964 60.4015 1.69964C60.1015 2.23964 59.9215 2.83963 59.7415 3.43963Z" fill="url(#paint2_linear_1126_7797)"/>
<path d="M73.6719 28.8796C73.6719 28.8196 73.6719 28.8196 73.6719 28.8196V28.8796ZM65.8718 21.0196C65.8718 20.9596 65.8719 20.9596 65.9319 20.8996C65.8719 20.9596 65.8718 20.9596 65.8718 20.9596V21.0196ZM74.5719 27.8596C76.3719 25.9396 77.7519 23.7796 78.9519 21.4996C79.6719 20.1796 80.3319 18.8596 80.3319 17.4196C80.3919 17.0596 80.3919 16.5796 80.2119 16.2796C79.9719 15.7396 79.6118 15.2596 79.1319 14.8996C76.9718 13.2196 74.1519 12.9196 70.9719 13.9396C70.2519 14.1796 69.6519 13.8796 68.9319 14.1196H68.8119C68.5118 13.6396 68.0319 13.8796 67.6119 14.1196C66.7719 14.5396 65.9318 15.0796 65.1518 15.6196C62.5718 17.5396 60.4719 19.9396 58.8519 22.5796C58.0719 23.8996 57.3518 25.2196 57.0518 26.6596C57.0518 26.7796 57.1719 26.9596 57.1119 27.0796C56.9919 27.3796 56.7519 27.6796 56.7519 27.9196C56.7519 28.9396 56.6919 29.9596 56.9919 30.8596C57.2919 32.0596 58.1318 32.8396 59.0318 33.5596C59.8118 34.0996 60.7719 34.2196 61.7919 34.2796C62.4519 34.2796 63.2318 34.0396 63.8918 34.0396C64.4318 33.9796 64.9118 33.9796 65.3318 33.4996C65.4519 33.3796 65.6319 33.3796 65.8119 33.3796C65.9319 33.2596 66.1719 33.2596 66.3519 33.1396C66.5919 33.0196 66.7719 32.8396 66.9519 32.7796C66.8919 32.5996 66.9519 32.4796 66.8919 32.3596C66.9519 32.2996 67.1918 32.2396 67.1918 32.2396C67.3718 32.6596 67.9118 32.0596 68.1518 32.2396C68.1518 32.2396 68.5119 31.9996 68.5719 31.8796C68.5719 31.2796 69.0519 30.9796 69.5319 30.7396C69.8919 30.5596 70.0719 30.1396 70.4319 30.0796C70.9118 29.8996 71.3319 29.4796 71.7519 29.2396C71.9919 29.1196 72.2319 29.0596 72.4719 28.9396C72.6519 29.5396 72.7119 29.5396 73.3119 29.1196C73.3718 29.0596 73.5519 28.9396 73.6719 28.8796C73.7318 28.6996 73.7318 28.5796 73.9118 28.4596C74.0919 28.2196 74.3319 28.0996 74.5719 27.8596ZM78.3519 21.4996C77.6918 23.3596 76.4318 25.0396 74.8718 26.5396C76.0718 24.8596 77.1519 23.1796 78.3519 21.4996ZM77.0319 20.4796C77.1519 20.8996 76.8519 21.2596 76.7318 21.5596C76.1918 22.7596 75.4118 23.8996 74.6918 24.6196C75.4718 23.1796 76.1919 21.8596 77.0319 20.4796ZM59.0318 24.9196C58.9118 25.0396 58.7919 25.0996 58.6719 25.2196C59.6319 22.4596 61.5518 20.2396 63.8918 18.1996C63.7719 18.3196 63.7719 18.4396 63.6519 18.5596C62.6319 19.8196 61.6718 21.0196 60.7118 22.2796C60.1718 23.1196 59.6318 24.0196 59.0318 24.9196ZM60.4118 25.3396C60.3518 25.3396 60.3519 25.2796 60.2919 25.2796C60.8918 24.1996 61.3719 23.0596 62.3319 22.1596C61.6719 23.1796 61.0718 24.2596 60.4118 25.3396ZM64.6719 21.0796C63.6519 22.6396 62.6919 24.1996 61.6719 25.7596C62.2719 24.0796 63.2919 22.5196 64.6719 21.0796ZM64.0119 30.8596C63.6519 31.0396 63.3518 31.1596 62.9319 31.2796C62.2719 31.4596 62.2118 31.4596 61.9118 30.8596C61.3718 29.6596 61.4919 28.2196 61.9719 26.7196C62.6919 24.0796 64.4919 21.8596 66.5919 19.7596C66.6518 19.6996 66.7119 19.6996 66.8919 19.5796C66.5319 20.0596 66.2919 20.4796 65.9319 20.8996C66.2319 20.6596 66.4718 20.3596 66.7719 20.0596C67.6118 19.1596 68.5118 18.3796 69.6518 17.8996C69.6518 18.0796 69.5919 18.2596 69.5919 18.4996C70.0718 18.1996 70.4919 18.0196 70.8519 17.7796C71.8119 17.1196 72.7719 16.6996 73.7918 16.4596C74.5118 16.2796 74.7519 16.3996 74.7519 17.1196C74.7519 18.6196 74.1519 20.1196 73.2519 21.6196C72.3519 23.2396 71.3318 24.7996 70.0118 26.2396C68.3318 28.0996 66.4118 29.7796 64.0119 30.8596ZM69.7119 28.4596C69.5919 28.5796 69.4118 28.5796 69.1118 28.6396C70.2518 27.3196 71.3318 26.2396 72.2318 25.0996C73.0718 23.9596 73.7318 22.7596 74.6319 21.4996C74.6319 21.4996 74.7518 21.4996 74.8718 21.4996C73.7918 24.1996 71.8718 26.4196 69.7119 28.4596ZM72.4719 28.9396C72.8919 28.2796 73.4919 27.7996 74.1519 27.3796C73.6119 27.9196 73.1319 28.5796 72.4719 28.9396ZM79.9719 20.7796C80.0319 20.5396 80.1518 20.2396 80.1518 19.8196C79.8518 20.2396 79.8519 20.5396 79.9719 20.8396V20.7796ZM79.4919 21.2596C78.9519 22.4596 78.2918 23.5396 77.5118 24.6196C77.3318 24.8596 77.2119 25.0996 77.0919 25.3996C77.8119 24.6796 78.3519 23.8396 78.7719 22.9996C79.1319 22.2796 79.6119 21.5596 79.9719 20.8396C79.7319 20.8396 79.5518 21.0196 79.4919 21.2596ZM74.9319 28.0996C75.5319 27.4396 76.2519 26.7196 76.6119 25.8796C76.0119 26.5996 75.4118 27.3196 74.8119 27.9796C74.8119 28.0396 74.8719 28.0396 74.9319 28.0996ZM74.0919 28.7596C73.9118 28.8196 73.7919 28.8196 73.6719 28.8796C73.8519 29.1196 73.8519 29.0596 74.0919 28.7596ZM62.8119 25.2796C62.8719 25.2796 62.9319 25.2796 62.9919 25.2796C63.4118 24.5596 63.9519 23.8396 64.3718 23.0596C64.5518 22.8196 64.6719 22.5196 64.9118 22.2196C64.4318 22.8196 63.9519 23.4196 63.5919 24.0196C63.2919 24.3796 63.0518 24.8596 62.8119 25.2796ZM64.9118 22.2196C64.9118 22.1596 64.9118 22.1596 64.9718 22.0996H64.9118C64.9118 22.1596 64.9118 22.1596 64.9118 22.2196ZM62.0319 27.2596C62.0319 27.2596 62.0919 27.2596 62.1519 27.2596C62.2119 27.0196 62.3918 26.7196 62.4519 26.4196C62.4519 26.4196 62.3919 26.4196 62.3319 26.4196C62.2719 26.7196 62.0919 27.0196 62.0319 27.2596ZM65.8718 21.0196V20.9596C65.8718 21.0196 65.8119 21.0196 65.8119 21.0196C65.8718 21.0196 65.8718 21.0196 65.8718 21.0196ZM65.0319 22.0396C65.3919 21.7396 65.6918 21.4396 65.8119 21.0196C65.4519 21.2596 65.1519 21.6196 65.0319 22.0396ZM64.9718 22.0996C64.9718 22.0996 64.9719 22.0996 65.0319 22.0396C65.0319 22.0396 64.9718 22.0996 64.9118 22.0996H64.9718Z" fill="url(#paint3_linear_1126_7797)"/>
<path d="M103.436 18.0796C103.076 17.5396 102.716 16.9396 102.176 16.5196C102.116 16.3996 101.996 16.2796 102.056 16.2196C102.296 15.6796 101.816 15.8596 101.636 15.7996C101.696 15.5596 101.756 15.3196 101.696 15.1396C101.636 14.9596 101.576 14.7196 101.456 14.5396C101.276 14.1796 101.156 13.7596 100.856 13.5196C99.8361 12.6196 98.6361 11.9596 96.8961 12.1996C96.5361 12.1996 96.1161 12.2596 95.8161 12.1396C95.0961 11.9596 94.3761 12.1996 93.7161 12.7396C92.8161 13.5196 91.8561 14.3596 90.8961 15.2596C90.4161 15.6796 89.9961 16.2196 89.3961 16.8196C89.3961 16.4596 89.5161 16.2196 89.5161 15.7996C88.9161 16.5796 89.0361 17.2996 88.3161 17.9596C88.7961 16.0996 89.7561 14.4196 90.0561 12.6796C89.7561 12.7396 89.5761 12.6796 89.4561 12.4396C89.3961 12.0796 89.2161 11.6596 88.6161 11.7196C88.2561 12.2596 87.9561 12.7996 87.6561 13.3996C87.5961 13.3996 87.5961 13.3996 87.5361 13.3996C87.7161 12.7996 87.8961 12.1996 88.0161 11.5996C87.4161 11.4196 87.3561 11.4196 87.0561 11.8996C86.9361 12.1396 86.8161 12.3196 86.5761 12.6196C86.4561 12.1396 86.2761 11.7796 86.2161 11.4196C85.3161 11.7196 84.8961 12.3196 84.4761 12.9796C83.5761 14.6596 82.9761 16.3396 82.3761 18.0196C80.5761 22.5796 79.6161 27.0796 79.6161 31.4596C79.6161 31.8796 79.5561 32.2396 79.6161 32.5996C79.7361 33.1396 79.8561 33.6196 80.5761 33.6196C80.6961 33.6196 80.7561 33.7396 80.8761 33.8596C81.3561 34.2796 81.5961 34.2796 82.3161 33.8596C82.4961 33.7396 82.6761 33.6196 82.7961 33.4996C82.9161 33.6196 83.0361 33.6796 83.0961 33.7396C83.2761 33.6196 83.3961 33.5596 83.5761 33.4396C83.6961 33.3796 83.8161 33.3196 83.9361 33.2596C84.7161 33.6796 84.7761 33.6796 85.3161 32.7796C85.3161 32.7196 85.3761 32.6596 85.4361 32.5996C85.4961 32.6596 85.5561 32.7196 85.6761 32.8396C85.8561 32.4796 86.0961 32.1796 86.2761 31.8196C86.6961 30.9196 87.1161 29.9596 87.5361 28.9996C88.5561 26.7796 89.6961 24.6196 91.1961 22.5796C91.5561 22.0396 91.8561 21.5596 92.1561 21.0196C92.3361 20.8996 92.5161 20.7796 92.6361 20.5996C92.7561 20.4796 92.5761 20.3596 92.5761 20.1796C92.6361 20.1196 92.6961 20.1196 92.7561 20.1196C93.1761 19.9996 93.5361 19.9396 93.2361 19.4596C93.1761 19.3396 93.3561 19.0996 93.5361 19.1596C93.8361 19.2196 94.0161 19.0996 94.0161 18.8596C94.0761 18.1996 94.4961 17.7796 95.0961 17.4796C95.6361 17.1796 96.1761 16.8196 96.4761 16.2196C96.5961 16.2796 96.8361 16.2196 96.8961 16.3396C97.5561 16.9996 98.2761 17.6596 98.8761 18.3796C99.2961 18.9796 99.8961 19.2796 100.556 19.5796C100.976 19.8796 101.276 19.6996 101.696 19.0996C101.696 19.0396 101.816 18.9196 101.876 18.8596C102.236 19.0396 102.536 19.1596 102.956 19.2796C103.256 18.9796 103.796 19.0396 103.976 18.4396C103.796 18.3196 103.556 18.2596 103.436 18.0796ZM85.0161 15.0796C85.0761 14.7796 85.1361 14.6596 85.1361 14.4796C85.3161 14.1796 85.4361 13.8196 85.6161 13.5196C85.7961 13.9396 85.6761 13.9996 85.0161 15.0796ZM87.0561 19.4596C86.9961 19.4596 86.9961 19.4596 86.9361 19.4596C87.1761 18.8596 87.4161 18.1996 87.5961 17.5396C87.7761 16.9996 88.0761 16.3996 88.2561 15.8596C88.3161 15.7396 88.4361 15.6196 88.5561 15.4996C88.0761 16.8196 87.5361 18.1396 87.0561 19.4596ZM88.5561 15.4996C88.6761 15.0796 88.6761 14.7196 88.7961 14.3596C88.8561 14.3596 88.9161 14.3596 88.9161 14.3596C88.7961 14.7196 88.7361 15.0796 88.5561 15.4996ZM86.9361 22.3396C86.8761 22.3396 86.8161 22.3396 86.8161 22.3396C86.8761 22.1596 86.9961 22.0396 86.9961 21.9196C87.0561 21.9196 87.0561 21.9196 87.1161 21.9196C87.1161 22.0396 86.9961 22.2196 86.9361 22.3396ZM88.1361 20.7196C88.0161 20.7196 88.0161 20.6596 87.9561 20.6596C88.3161 19.5796 89.3361 18.8596 90.1161 18.0196C89.4561 18.9196 88.7361 19.8196 88.1361 20.7196ZM85.7361 30.7396C85.7361 30.0196 87.2961 26.5996 88.1361 25.4596C87.4161 27.1996 86.5761 28.9396 85.7361 30.7396ZM85.7961 32.1796C85.7961 32.1196 85.7961 32.1196 85.7361 32.1196C85.6761 31.9996 85.6761 31.8796 85.7361 31.7596C87.0561 28.7596 88.4361 25.7596 90.4761 22.9396C90.5361 22.7596 90.7161 22.3996 91.0161 22.3996C89.9961 23.9596 89.0361 25.5196 88.2561 27.1996C87.4161 28.8196 86.6361 30.4996 85.7961 32.1796ZM91.0761 22.3396C91.1361 22.0396 91.2561 21.7396 91.5561 21.6196C91.3761 21.8596 91.1961 22.0996 91.0761 22.3396ZM92.1561 20.5996C92.1561 20.8396 92.0961 20.9596 92.1561 21.0196C92.0361 21.0796 91.9761 21.0796 91.7961 21.1396C91.9161 20.9596 91.9761 20.8396 92.1561 20.5996ZM90.4761 13.3996C90.4761 13.3996 90.4761 13.3996 90.4161 13.3996C90.2961 13.6396 90.1161 13.9396 89.8761 14.2396C89.9961 14.2396 90.0561 14.2396 90.1161 14.2996C90.2361 13.9996 90.4161 13.6996 90.4761 13.3996ZM89.9361 14.7796C89.6361 15.0196 89.5161 15.1996 89.7561 15.4996C89.8161 15.1996 89.8761 14.9596 89.9361 14.7796Z" fill="url(#paint4_linear_1126_7797)"/>
<path d="M134.596 11.8996C134.356 11.5396 134.176 11.1796 133.816 10.9996C132.676 10.2196 131.356 9.91964 129.856 9.85964C129.616 9.85964 129.376 9.79963 129.076 9.73964C129.916 8.05964 130.936 6.55964 131.656 4.81963C131.296 5.17964 131.056 5.41964 130.756 5.71964C131.176 4.99964 131.536 4.33964 131.836 3.67963C131.476 3.25964 131.236 2.83963 130.996 2.47964C130.696 2.71964 130.456 2.89963 130.216 3.13963C130.276 2.89963 130.336 2.71964 130.396 2.53964C130.336 2.41964 130.396 2.17964 130.336 2.11964C130.156 1.99963 129.916 2.05963 129.736 2.23964C129.616 2.35964 129.496 2.53964 129.316 2.77964C129.196 2.47964 129.136 2.41964 129.196 2.29963C129.136 1.57964 128.836 1.51964 128.176 1.99963C127.876 2.23964 127.636 2.47964 127.396 2.71964C127.036 3.07964 126.676 3.49964 126.376 3.91964C125.296 5.65963 124.216 7.39964 123.076 9.13964C122.656 9.79963 122.656 9.79963 121.996 9.79963C121.096 9.79963 120.196 9.79963 119.356 9.79963C118.216 9.85964 117.136 9.91964 115.996 9.97964C115.396 9.97964 114.916 10.3396 114.496 10.8196C113.956 11.3596 114.016 12.0196 114.676 12.1996C114.736 12.2596 114.856 12.2596 114.916 12.3196C114.796 13.0396 114.916 13.2196 115.576 13.2796C117.196 13.4596 118.576 14.0596 120.316 13.8796C120.376 13.8796 120.436 13.9396 120.496 13.9996C120.496 14.1796 120.436 14.3596 120.316 14.5396C119.896 15.6196 119.416 16.6996 119.056 17.8396C118.156 20.7196 117.316 23.5996 116.536 26.4796C115.996 28.4596 115.636 30.3796 115.576 32.2996C115.516 33.4396 115.876 34.2196 116.596 34.8796C116.956 35.1796 117.256 35.1796 117.736 34.8196C118.036 34.6396 118.156 34.6396 118.456 34.6996C118.756 34.8196 119.236 34.7596 119.476 34.2796C119.476 34.2796 119.596 34.2796 119.656 34.2796C119.596 34.3996 119.656 34.5196 119.656 34.6996C119.956 34.5196 120.016 34.3396 119.956 34.0996C119.596 33.4996 119.476 32.8396 119.716 32.0596C119.836 31.3396 119.956 30.6196 120.136 29.8996C120.496 28.6396 120.796 27.3796 121.156 26.1196C121.456 25.3996 121.396 24.6196 122.236 24.0196C122.296 23.9596 122.296 23.8396 122.296 23.7196C122.776 22.5196 123.256 21.2596 123.736 19.9996C123.676 19.9996 123.556 19.9396 123.316 19.8796C123.976 18.5596 124.576 17.2396 125.236 15.9196C125.236 15.9196 125.296 15.9196 125.356 15.9196C125.296 16.2196 125.176 16.5196 125.116 16.7596C125.716 15.8596 126.196 14.9596 126.676 14.0596C127.036 13.3996 127.096 13.3396 127.876 13.2796C128.716 13.2196 129.616 13.1596 130.516 13.1596C131.476 13.0996 132.436 13.0996 133.456 13.0396C134.056 13.0396 134.776 12.3196 134.596 11.8996ZM123.136 20.8396C123.076 20.9596 123.076 21.1396 123.016 21.2596C123.016 21.3196 123.016 21.3196 122.956 21.3196C123.016 21.1396 123.016 21.0196 123.076 20.8396H123.136ZM128.776 9.37964C128.836 9.19964 128.956 9.01964 129.016 8.89964C129.016 9.01964 128.956 9.19964 128.896 9.37964C128.836 9.37964 128.776 9.37964 128.776 9.37964ZM129.076 8.77964C129.616 7.81964 130.216 6.79964 130.756 5.83964C130.696 6.01964 130.696 6.19963 130.636 6.31964C130.276 7.03963 129.856 7.69964 129.436 8.41963C129.376 8.53964 129.196 8.65964 129.076 8.77964ZM123.916 19.2196C123.976 19.2196 124.036 19.2196 124.096 19.2796C124.276 18.7996 124.456 18.3196 124.696 17.8996C124.576 17.8996 124.516 17.8396 124.456 17.8396C124.276 18.3196 124.096 18.7996 123.916 19.2196Z" fill="url(#paint5_linear_1126_7797)"/>
<path d="M145.816 34.6396C145.756 34.3996 145.756 34.0996 145.696 33.8596C145.636 33.6196 145.576 33.3796 145.636 33.0796C145.696 32.4796 145.876 31.8796 145.996 31.2796C146.536 29.4196 147.076 27.6196 147.616 25.7596C147.916 24.9196 148.336 24.0796 148.756 23.2396C148.636 23.7196 148.516 24.2596 148.396 24.7396C149.716 21.8596 151.276 19.0996 152.416 16.1596C152.116 16.5796 151.816 16.9396 151.576 17.3596C151.876 16.5196 152.176 15.6796 152.476 14.8996C152.656 14.4796 152.476 14.2396 152.236 14.0596C152.116 13.9996 151.996 13.9396 151.936 13.8196C151.696 13.2196 151.696 13.1596 150.916 13.4596C150.736 13.2196 150.616 12.9796 150.376 12.7396C149.896 13.0996 149.476 13.3996 148.996 13.7596C149.056 13.3396 149.176 13.0396 149.236 12.7996C148.936 12.4996 148.636 12.5596 148.276 12.9196C147.736 13.3396 147.256 13.7596 146.716 14.1196C143.836 16.3396 141.076 18.6196 138.556 21.1396C138.196 21.4396 137.836 21.6196 137.476 21.8596C137.476 21.8596 137.476 21.7996 137.416 21.7996C139.396 16.0996 141.916 10.5196 145.096 4.87964C144.556 5.05964 144.316 5.17964 143.956 5.29964C144.076 5.05964 144.196 4.87964 144.376 4.69964C144.616 4.63964 144.856 4.63964 145.156 4.57964C145.336 4.33964 145.456 4.09964 145.576 3.79964C145.396 3.85964 145.336 3.85964 145.336 3.85964C145.216 3.43963 145.096 3.01964 144.916 2.59963C144.496 2.95964 144.256 3.19964 143.836 3.55964C144.076 3.01964 144.196 2.59963 144.376 2.17964C143.476 2.05963 143.416 3.19964 142.636 3.31964C143.116 2.17964 143.116 2.17964 142.996 1.69964C142.336 1.69964 141.916 2.17964 141.556 2.59963C141.136 3.07964 140.776 3.61964 140.416 4.15964C139.396 6.01964 138.256 7.81964 137.296 9.73964C136.336 11.7196 135.496 13.7596 134.596 15.7396C133.276 18.6196 132.256 21.4996 131.296 24.4396C130.516 26.7796 129.856 29.1196 129.196 31.4596C129.076 31.6996 129.076 31.8796 129.076 32.1196C128.956 32.7796 129.016 32.8996 129.736 33.0796C129.676 33.4996 129.796 33.9196 130.276 33.9196C130.636 33.8596 131.056 33.6196 131.536 33.4396C131.536 33.5596 131.536 33.7396 131.596 33.8596C132.256 33.4996 132.736 33.5596 132.976 34.2196C133.396 33.8596 133.696 33.6196 133.996 33.3796C134.056 33.4996 134.176 33.6196 134.356 33.3796C134.536 33.1396 134.656 32.8996 134.836 32.5996C134.536 32.8396 134.296 33.0796 134.056 33.3196C134.236 32.9596 134.356 32.5996 134.656 32.2996C136.996 29.2396 139.576 26.2996 142.336 23.5396C142.636 23.2396 142.936 22.9396 143.296 22.5796C143.356 22.9996 142.996 23.1796 142.876 23.4796C143.176 23.5396 143.116 23.7196 143.056 23.9596C142.876 24.6796 142.576 25.4596 142.456 26.1796C141.856 28.3396 141.436 30.4996 141.256 32.5996C141.196 33.7996 141.316 34.8796 142.096 35.6596C142.396 35.9596 142.756 36.0796 143.236 35.9596C143.776 35.8996 144.196 35.9596 144.616 36.0196C145.216 36.1996 145.216 36.2596 145.636 35.7196C145.876 35.4196 145.996 35.1796 146.116 34.9996C145.936 34.8196 145.876 34.7596 145.816 34.6396ZM141.796 7.03963C141.736 7.09964 141.796 7.09964 141.796 7.09964C141.676 7.27963 141.676 7.45964 141.556 7.63964C141.496 7.57963 141.436 7.57963 141.436 7.57963C141.556 7.39964 141.676 7.21964 141.796 7.03963ZM136.936 28.8196C136.156 29.7796 135.316 30.7996 134.416 31.7596C134.476 31.5796 134.596 31.3996 134.716 31.2196C135.856 29.7796 136.996 28.3996 138.196 26.9596C138.436 26.7196 138.616 26.4196 139.036 26.4196C138.316 27.2596 137.656 28.0396 136.936 28.8196ZM139.036 26.4196C138.916 26.1196 139.036 25.8796 139.516 25.6396C139.336 25.9396 139.156 26.1796 139.036 26.4196ZM140.956 24.0796C141.076 23.5396 141.436 23.4196 141.796 23.1796C141.676 23.5396 141.436 23.8396 140.956 24.0796ZM142.276 22.7596C142.336 22.3996 142.456 22.2796 142.756 22.3996C142.576 22.5196 142.456 22.6396 142.276 22.7596ZM142.816 22.3396C142.816 22.0996 142.696 21.7996 143.176 21.7996C143.056 21.9796 142.936 22.1596 142.816 22.3396ZM143.236 21.7996C143.416 21.5596 143.596 21.3796 143.776 21.0796C143.836 21.5596 143.476 21.6796 143.236 21.7996ZM144.736 17.1796C144.316 17.5996 143.896 18.0196 143.416 18.4396C142.996 18.7996 142.516 19.2196 142.096 19.6396C141.616 20.0596 141.196 20.4796 140.656 20.9596C140.296 21.3796 139.876 21.7996 139.456 22.2196C138.976 22.6396 138.556 23.0596 138.136 23.5396C137.716 23.9596 137.296 24.3796 136.756 24.9796C136.756 24.4396 136.996 24.0796 137.356 23.7796C138.016 22.9996 138.796 22.2796 139.516 21.4996C140.596 20.4196 141.616 19.4596 142.756 18.4996C143.716 17.7796 144.556 17.0596 145.456 16.2796C145.636 16.1596 145.816 16.0996 146.116 15.9196C145.816 16.6396 145.096 16.7596 144.736 17.1796ZM136.276 30.9196C135.796 31.2796 135.436 31.7596 135.256 32.2396C135.616 31.8196 135.916 31.3996 136.276 30.9196Z" fill="url(#paint6_linear_1126_7797)"/>
<path d="M167.927 26.0596C167.687 26.3596 167.447 26.6596 167.267 26.9596C167.627 25.8196 167.627 25.8196 167.147 25.5196C166.907 25.8196 166.607 26.1796 166.307 26.5996C166.187 26.1196 166.727 25.6996 166.487 25.3396C165.947 25.5796 165.887 26.0596 165.527 26.3596C165.167 26.7796 164.927 27.1396 164.567 27.4996C164.747 26.7796 165.167 26.1196 165.347 25.3996C165.047 25.5796 164.807 25.8196 164.507 26.1196C164.207 26.4796 163.907 26.9596 163.547 27.3196C161.807 29.0596 159.887 30.4996 157.787 31.5796C157.367 31.8196 156.887 32.1796 156.527 31.9396C156.107 31.6996 155.987 31.2196 155.987 30.6196C155.987 30.3796 156.047 30.1396 156.107 29.9596C156.347 29.9596 156.587 29.9596 156.767 29.8996C157.067 29.7796 157.367 29.5396 157.607 29.3596C158.807 28.2796 160.007 27.1996 161.087 26.1196C161.507 25.7596 161.807 25.2796 162.227 24.8596C162.587 24.8596 162.707 24.6196 162.707 24.3196C163.187 23.7796 163.547 23.2396 164.027 22.7596C165.287 21.3796 166.307 19.8796 167.207 18.3796C167.867 17.2396 167.867 16.2796 167.147 15.5596C166.967 15.3196 166.667 15.1396 166.487 14.9596C165.287 14.0596 163.967 13.4596 162.407 13.2196C161.327 12.9796 160.247 13.1596 159.107 13.6396C157.127 14.4796 155.567 15.9196 154.307 17.6596C152.147 20.7196 150.887 23.9596 150.347 27.2596C150.167 28.6996 150.227 30.1396 150.707 31.3996C151.487 33.4396 152.927 34.7596 155.327 34.9396C156.587 34.9996 157.967 34.6396 159.347 34.3996C159.827 34.3396 160.307 34.0396 160.787 33.7396C162.827 32.5396 164.627 30.9796 166.307 29.2996C166.547 29.0596 166.727 28.8196 166.907 28.5196C167.147 28.0996 167.327 27.6196 167.567 27.1396C167.687 26.8396 167.867 26.4796 167.987 26.1196C167.927 26.1196 167.867 26.1196 167.927 26.0596ZM163.787 22.2796C163.907 21.9196 164.147 21.6796 164.447 21.4396C164.447 21.8596 164.027 21.9796 163.787 22.2796ZM166.067 19.2196C166.127 19.2196 166.187 19.2196 166.247 19.2796C165.767 19.9996 165.407 20.8396 164.567 21.3796C165.047 20.6596 165.587 19.9396 166.067 19.2196ZM164.807 18.9796C164.867 18.9796 164.927 19.0396 164.987 19.0396C164.627 19.5196 164.327 19.9996 164.027 20.4796C163.967 20.4196 163.907 20.4196 163.847 20.4196C164.147 19.9396 164.447 19.4596 164.807 18.9796ZM154.307 19.9396C155.387 17.7196 156.227 16.6396 157.487 15.9796C157.547 15.9796 157.547 16.0396 157.607 16.0996C156.527 17.2996 155.447 18.5596 154.307 19.9396ZM155.987 20.3596C155.927 20.3596 155.867 20.3596 155.807 20.2996C156.227 19.3996 156.767 18.5596 157.547 17.7796C157.547 17.8396 157.607 17.8396 157.667 17.8396C157.127 18.6796 156.587 19.5196 155.987 20.3596ZM159.407 17.7796C158.747 18.7996 158.027 19.8796 157.367 20.8996C157.787 19.7596 158.387 18.6796 159.407 17.7796ZM160.427 17.7796C158.447 20.0596 157.247 22.4596 156.347 25.0396C156.587 22.8196 158.807 18.7396 160.427 17.7796ZM156.587 25.3396C157.247 23.2996 158.147 21.2596 159.527 19.3396C160.127 18.3796 160.907 17.5396 161.867 16.8796C161.987 16.7596 162.107 16.6996 162.227 16.6396C162.887 16.2796 163.187 16.4596 163.067 17.1196C162.827 17.7796 162.527 18.4396 162.107 19.0396C160.907 21.0196 159.347 22.8196 157.787 24.5596C157.427 25.0396 157.007 25.5196 156.467 26.1196C156.527 25.7596 156.467 25.5196 156.587 25.3396ZM156.167 27.8596C156.107 27.4996 156.347 27.3196 156.527 27.0796C157.907 25.5196 159.287 24.0196 160.607 22.3996C161.327 21.5596 161.927 20.5996 162.587 19.6396C162.827 19.3396 162.887 18.9796 163.367 18.7996C163.487 19.1596 163.247 19.5196 163.007 19.8196C162.107 21.0196 161.147 22.2796 160.187 23.4196C159.047 24.7996 157.787 26.1196 156.527 27.4396C156.467 27.5596 156.287 27.6796 156.167 27.8596ZM166.007 21.1396C166.547 20.2396 167.147 19.3396 167.687 18.3796C167.687 18.3796 167.627 18.3796 167.567 18.3196C166.967 19.2796 166.367 20.1796 165.827 21.0796C165.887 21.0796 165.947 21.1396 166.007 21.1396Z" fill="url(#paint7_linear_1126_7797)"/>
<path d="M212.452 19.0996C212.812 18.6196 213.172 18.1996 213.592 17.7196C214.072 16.7596 214.612 15.7396 215.092 14.7796C215.392 14.1796 215.632 13.5796 215.692 12.9796C215.812 11.3596 215.812 9.73964 215.272 8.29964C214.492 6.43963 213.352 4.81963 211.792 3.67963C210.592 2.83963 209.392 1.99963 207.952 1.63964C204.652 0.919634 201.112 1.21963 197.452 1.99963C195.112 2.53964 192.652 3.31964 190.192 4.03964C187.492 4.81963 184.972 6.07964 182.572 7.75964C180.352 9.31964 178.552 11.0596 177.892 13.5196C178.252 13.8196 178.552 14.1196 178.852 14.4196C178.912 14.4796 179.092 14.6596 179.152 14.7796C179.512 14.7796 179.812 14.7796 180.172 14.8396C180.052 15.1396 179.932 15.4396 180.292 15.7396C180.592 15.9796 180.712 16.5196 180.952 17.0596C181.192 16.8196 181.492 16.5796 181.612 16.3396C182.152 15.4996 182.752 14.8396 183.472 14.2996C184.372 13.6996 185.152 13.0396 185.992 12.4396C186.412 12.1996 186.772 12.0796 187.132 11.8996C187.132 11.9596 187.192 11.9596 187.132 12.0196C186.832 12.2596 186.592 12.4996 186.112 12.9196C186.892 12.7396 187.312 12.0196 188.032 12.1996C187.552 13.5796 187.192 14.9596 186.772 16.3396C185.752 19.3396 184.732 22.3396 183.712 25.3396C183.592 25.6396 183.412 26.0596 183.172 26.2996C182.452 26.8996 182.332 27.4996 182.392 28.1596C182.452 28.5796 182.452 29.1196 182.332 29.5396C181.552 32.3596 180.772 35.1196 180.052 37.8796C179.692 39.1396 179.512 40.3396 179.392 41.5996C179.332 42.0196 179.152 42.6196 179.512 42.9196C179.932 42.6196 180.232 42.2596 180.592 41.9596C180.832 42.3796 180.412 42.8596 180.352 43.2796C180.352 43.5196 180.052 43.8796 180.472 43.9996C181.432 43.0396 181.732 41.8396 181.432 40.8196C181.552 40.6996 181.792 40.5196 182.152 40.2796C182.032 40.7596 181.852 41.2996 181.972 41.4196C182.272 41.6596 181.972 42.0196 181.972 42.2596C182.032 42.6196 181.972 42.9796 182.512 42.9796C182.692 42.9796 182.872 43.2196 182.992 43.3996C183.652 42.8596 183.172 42.4396 183.412 41.9596C183.052 41.8996 182.512 42.0796 182.752 41.4196C182.932 41.3596 183.112 41.3596 183.292 41.3596C184.012 39.1396 184.732 36.9796 185.452 34.6396C185.992 34.8796 186.412 35.0596 186.832 35.2996C187.852 35.9596 188.872 36.7396 189.892 37.3996C193.612 39.9196 197.632 41.8396 202.492 42.6196C202.852 42.6796 203.212 42.6796 203.632 42.7396C203.752 42.4996 203.872 42.3196 203.932 42.1996C204.892 42.1996 204.892 42.1996 205.492 41.7196C205.372 41.3596 205.372 41.0596 205.252 40.6996C205.972 40.1596 206.572 39.6796 207.232 39.1396C207.112 38.4196 206.632 38.1196 205.912 37.8796C204.712 37.5796 203.512 37.2196 202.372 36.7396C201.112 36.1396 199.912 35.4196 198.592 34.8196C197.452 34.3396 196.732 33.3196 195.712 32.5996C195.592 32.4796 195.592 32.2996 195.532 32.1196C194.932 32.4196 194.812 32.1196 194.752 31.6396C194.872 31.7596 195.052 31.8196 195.292 31.8796C194.992 31.5796 195.052 31.2796 195.532 31.0396C195.832 30.8596 196.132 30.7396 196.432 30.6796C198.232 30.1396 200.032 29.2996 201.772 28.4596C205.732 26.4796 209.152 23.6596 212.152 20.2396C212.392 19.9396 212.512 19.5196 212.692 19.1596C212.632 19.0996 212.512 19.0996 212.452 19.0996ZM179.452 12.6796C179.332 13.0396 179.212 13.3396 179.092 13.6396C178.852 13.5796 178.672 13.5796 178.492 13.4596C179.332 12.0796 180.292 10.8196 181.612 9.85964C182.992 8.89964 184.432 7.87963 186.052 7.39964C183.892 9.19963 181.552 10.8196 179.812 13.1596C179.632 12.9196 179.632 12.8596 179.452 12.6796ZM182.872 11.7796C182.932 11.2996 183.352 11.2396 183.652 10.9996C183.712 11.0596 183.712 11.0596 183.712 11.1196C183.472 11.3596 183.172 11.5396 182.872 11.7796ZM181.672 13.2796C181.312 13.6996 180.772 13.9996 180.652 14.5396C180.712 14.5996 180.352 14.7196 180.172 14.7796C180.172 14.5396 180.112 14.2996 180.052 13.9996C180.832 13.9396 181.192 13.2196 181.492 12.7396C181.912 12.0796 182.272 11.8396 182.872 11.8396C182.452 12.3196 182.092 12.7996 181.672 13.2796ZM181.912 15.2596C181.852 15.3196 181.792 15.3196 181.552 15.3796C181.792 14.8996 181.912 14.4796 182.272 14.1796C182.572 13.8196 182.692 13.2196 183.352 13.2196C183.592 13.2196 183.892 12.8596 184.132 12.6796C184.672 12.3196 185.152 12.0196 185.692 11.6596C185.632 11.7796 185.632 11.8996 185.572 11.9596C184.372 13.0396 183.112 14.1796 181.912 15.2596ZM185.752 11.5996C185.812 11.4796 185.872 11.2996 185.932 11.1796C185.992 11.2396 186.112 11.2396 186.112 11.2996C186.052 11.5396 186.052 11.7196 185.752 11.5996ZM187.852 10.9396C187.792 10.8796 187.732 10.8796 187.672 10.8796C187.792 10.6396 187.852 10.4596 187.972 10.2196C188.032 10.2196 188.092 10.2796 188.152 10.2796C188.032 10.4596 187.972 10.6996 187.852 10.9396ZM181.432 36.4996C181.372 36.7396 181.372 36.9796 181.312 37.2796C181.252 37.2796 181.192 37.2796 181.072 37.2796C181.132 37.0396 181.192 36.7996 181.192 36.4996C181.252 36.4996 181.372 36.4996 181.432 36.4996ZM180.952 38.0596C181.132 38.4796 181.132 38.7196 180.532 38.7196C180.652 38.5396 180.772 38.3596 180.952 38.0596ZM180.472 39.1396C180.772 39.2596 180.892 39.3796 181.132 39.4996C180.892 39.6796 180.652 39.8596 180.352 40.1596C180.412 39.7396 180.472 39.4996 180.472 39.1396ZM180.592 41.9596C180.412 41.8396 180.172 41.7796 179.932 41.6596C180.112 41.2396 180.112 40.7596 180.772 40.6996C181.132 41.0596 180.712 41.5396 180.592 41.9596ZM187.972 16.3396H187.912C187.972 16.0396 188.032 15.7996 188.152 15.5596H188.212C188.092 15.7996 188.032 16.0396 187.972 16.3396ZM190.912 4.99964C191.032 4.93964 191.092 4.81963 191.212 4.81963C191.272 4.81963 191.332 4.93964 191.332 5.05963C191.212 5.05963 191.152 5.17964 191.092 5.11964C190.972 5.11964 190.912 5.05964 190.912 4.99964ZM182.152 39.7396C182.092 39.7396 182.092 39.7396 182.032 39.7396C182.152 39.0796 182.332 38.4796 182.512 37.8796C182.572 37.8796 182.572 37.8196 182.632 37.8196C182.452 38.4796 182.272 39.0796 182.152 39.7396ZM182.692 41.1196C183.052 40.0396 183.352 39.1996 183.652 38.2996C183.712 38.2996 183.772 38.2996 183.832 38.2996C183.592 39.1996 183.412 40.0396 183.172 40.8796C183.172 40.9396 182.992 40.9996 182.692 41.1196ZM209.992 20.4796C209.452 21.6196 206.752 24.0196 204.652 25.0396C206.452 23.5396 208.252 22.0396 209.992 20.4796ZM210.052 17.3596C210.112 17.3596 210.172 17.3596 210.172 17.4196C210.112 17.5396 209.992 17.6596 209.932 17.7796C209.872 17.7796 209.812 17.7196 209.812 17.7196C209.872 17.5996 209.992 17.4796 210.052 17.3596ZM209.332 18.2596C209.212 18.7996 208.372 19.8196 207.292 20.8396C206.512 21.5596 205.612 22.2796 204.772 22.9996C204.772 22.9396 204.712 22.8796 204.652 22.8196C204.712 22.6396 204.832 22.4596 204.892 22.3396C205.012 22.2196 205.192 22.0396 205.312 21.9796C206.872 21.0796 207.892 19.4596 209.332 18.2596ZM191.092 17.7796C191.032 18.0196 190.912 18.3196 190.852 18.6196C190.852 18.3196 190.912 18.0196 190.972 17.7796C191.032 17.7796 191.032 17.7796 191.092 17.7796ZM190.732 18.7396C190.612 18.9796 190.492 19.2196 190.372 19.4596C190.492 19.0396 190.492 19.0396 190.732 18.7396ZM187.732 26.5996C187.672 26.5996 187.672 26.5996 187.612 26.5996C187.672 26.3596 187.792 26.1796 187.852 25.9396C187.852 25.9396 187.852 25.9396 187.912 25.9396C187.852 26.1796 187.792 26.3596 187.732 26.5996ZM188.452 24.6196H188.392C188.452 24.4396 188.512 24.1996 188.572 24.0196H188.632C188.572 24.1996 188.512 24.4396 188.452 24.6196ZM189.172 22.6396C189.112 22.5796 189.172 22.4596 189.172 22.3396C189.172 22.2796 189.232 22.2196 189.292 22.1596C189.292 22.1596 189.292 22.1596 189.352 22.1596C189.232 22.3396 189.172 22.5196 189.172 22.6396ZM189.832 21.0796C189.772 21.0796 189.772 21.0796 189.712 21.0796C189.772 20.8996 189.772 20.7196 189.832 20.5396C189.892 20.5396 189.892 20.5396 189.952 20.5396C189.892 20.7196 189.892 20.8996 189.832 21.0796ZM188.272 27.0196C190.132 21.0796 192.772 15.3196 195.292 9.55964C195.352 9.55964 195.472 9.61964 195.532 9.61964C195.172 10.4596 194.812 11.3596 194.512 12.1996C192.412 16.8796 190.372 21.5596 188.692 26.2996C188.572 26.5396 188.392 26.7796 188.272 27.0196ZM190.252 26.6596C189.832 26.7796 189.472 26.8996 189.052 27.0196C188.992 27.0196 188.872 27.0196 188.572 27.0196C188.812 26.4796 188.992 26.0596 189.172 25.5796C190.732 21.0196 192.892 16.5196 194.872 11.9596C195.232 11.1796 195.532 10.3996 195.772 9.61964C196.192 8.59964 196.312 8.53964 197.332 8.23964C198.712 7.75964 200.212 7.45964 201.532 7.39964C203.512 7.21964 205.372 7.09964 207.352 7.03963C208.012 7.03963 208.612 7.33964 209.212 7.57963C209.752 7.81964 209.872 8.41963 209.932 9.01964C209.992 10.4596 209.392 11.8396 208.672 13.2196C206.932 16.2796 204.472 18.6196 201.652 20.6596C197.992 23.2396 194.272 25.2796 190.252 26.6596ZM196.852 25.3996C197.812 24.7996 198.832 24.1996 199.852 23.5396C201.232 22.6396 202.612 21.6796 203.932 20.4796C204.652 19.7596 205.372 19.0396 206.092 18.3196C206.272 18.1996 206.452 18.0796 206.752 17.8996C206.752 18.1996 206.752 18.4396 206.632 18.5596C206.212 19.0996 205.672 19.6996 205.192 20.1796C202.672 22.5196 199.852 24.3196 196.852 25.3996ZM201.712 28.1596C201.712 28.0996 201.712 28.0396 201.652 27.9796C201.892 27.8596 202.132 27.7996 202.312 27.6796C202.132 27.8596 201.952 28.0396 201.712 28.1596ZM211.432 20.5996C209.032 23.3596 206.272 25.5796 203.212 27.3796C202.972 27.4996 202.732 27.5596 202.492 27.6196C202.792 27.3796 203.092 27.0796 203.452 26.8396C206.572 24.7996 209.332 22.2796 211.972 19.5796C212.032 19.3996 212.212 19.2796 212.392 19.0996C212.332 19.6996 211.792 20.1196 211.432 20.5996ZM178.312 15.4996C178.492 15.5596 178.672 15.6196 178.912 15.6796C179.452 15.2596 179.452 15.1996 179.152 14.7796C178.912 14.7196 178.792 14.6596 178.552 14.5996C178.432 14.8996 178.372 15.1396 178.312 15.4996ZM214.192 17.2996C214.072 17.3596 214.072 17.4196 214.012 17.4796L214.072 17.5396C214.072 17.4796 214.072 17.3596 214.192 17.2996ZM214.852 15.6196C214.612 16.2196 214.372 16.7596 214.192 17.2996C214.432 16.7596 214.792 16.2196 215.032 15.6796C214.972 15.6796 214.912 15.6796 214.852 15.6196ZM212.692 19.1596C213.472 18.7996 213.652 18.1396 214.012 17.5396C213.832 17.5996 213.712 17.6596 213.592 17.7196C213.292 18.1996 213.052 18.6796 212.692 19.1596ZM214.072 17.5396L214.012 17.4796C214.012 17.5396 214.012 17.5396 214.012 17.5396H214.072ZM178.912 16.3996C179.392 15.9796 178.972 15.9196 178.912 15.7396C178.732 15.8596 178.612 15.9796 178.432 16.1596C178.612 16.2796 178.732 16.3396 178.912 16.3996ZM178.912 15.7396V15.6796C178.912 15.7396 178.912 15.7396 178.912 15.7396ZM183.352 15.0196L183.412 15.0796C183.532 15.0196 183.592 14.9596 183.772 14.8396C183.712 14.7796 183.652 14.7796 183.592 14.7196C183.532 14.8396 183.412 14.8996 183.352 15.0196Z" fill="url(#paint8_linear_1126_7797)"/>
<path d="M228.247 28.8796C228.247 28.8196 228.247 28.8196 228.247 28.8196V28.8796ZM220.447 21.0196C220.447 20.9596 220.447 20.9596 220.507 20.8996C220.447 20.9596 220.447 20.9596 220.447 20.9596V21.0196ZM229.147 27.8596C230.947 25.9396 232.327 23.7796 233.527 21.4996C234.247 20.1796 234.907 18.8596 234.907 17.4196C234.967 17.0596 234.967 16.5796 234.787 16.2796C234.547 15.7396 234.187 15.2596 233.707 14.8996C231.547 13.2196 228.727 12.9196 225.547 13.9396C224.827 14.1796 224.227 13.8796 223.507 14.1196H223.387C223.087 13.6396 222.607 13.8796 222.187 14.1196C221.347 14.5396 220.507 15.0796 219.727 15.6196C217.147 17.5396 215.047 19.9396 213.427 22.5796C212.647 23.8996 211.927 25.2196 211.627 26.6596C211.627 26.7796 211.747 26.9596 211.687 27.0796C211.567 27.3796 211.327 27.6796 211.327 27.9196C211.327 28.9396 211.267 29.9596 211.567 30.8596C211.867 32.0596 212.707 32.8396 213.607 33.5596C214.387 34.0996 215.347 34.2196 216.367 34.2796C217.027 34.2796 217.807 34.0396 218.467 34.0396C219.007 33.9796 219.487 33.9796 219.907 33.4996C220.027 33.3796 220.207 33.3796 220.387 33.3796C220.507 33.2596 220.747 33.2596 220.927 33.1396C221.167 33.0196 221.347 32.8396 221.527 32.7796C221.467 32.5996 221.527 32.4796 221.467 32.3596C221.527 32.2996 221.767 32.2396 221.767 32.2396C221.947 32.6596 222.487 32.0596 222.727 32.2396C222.727 32.2396 223.087 31.9996 223.147 31.8796C223.147 31.2796 223.627 30.9796 224.107 30.7396C224.467 30.5596 224.647 30.1396 225.007 30.0796C225.487 29.8996 225.907 29.4796 226.327 29.2396C226.567 29.1196 226.807 29.0596 227.047 28.9396C227.227 29.5396 227.287 29.5396 227.887 29.1196C227.947 29.0596 228.127 28.9396 228.247 28.8796C228.307 28.6996 228.307 28.5796 228.487 28.4596C228.667 28.2196 228.907 28.0996 229.147 27.8596ZM232.927 21.4996C232.267 23.3596 231.007 25.0396 229.447 26.5396C230.647 24.8596 231.727 23.1796 232.927 21.4996ZM231.607 20.4796C231.727 20.8996 231.427 21.2596 231.307 21.5596C230.767 22.7596 229.987 23.8996 229.267 24.6196C230.047 23.1796 230.767 21.8596 231.607 20.4796ZM213.607 24.9196C213.487 25.0396 213.367 25.0996 213.247 25.2196C214.207 22.4596 216.127 20.2396 218.467 18.1996C218.347 18.3196 218.347 18.4396 218.227 18.5596C217.207 19.8196 216.247 21.0196 215.287 22.2796C214.747 23.1196 214.207 24.0196 213.607 24.9196ZM214.987 25.3396C214.927 25.3396 214.927 25.2796 214.867 25.2796C215.467 24.1996 215.947 23.0596 216.907 22.1596C216.247 23.1796 215.647 24.2596 214.987 25.3396ZM219.247 21.0796C218.227 22.6396 217.267 24.1996 216.247 25.7596C216.847 24.0796 217.867 22.5196 219.247 21.0796ZM218.587 30.8596C218.227 31.0396 217.927 31.1596 217.507 31.2796C216.847 31.4596 216.787 31.4596 216.487 30.8596C215.947 29.6596 216.067 28.2196 216.547 26.7196C217.267 24.0796 219.067 21.8596 221.167 19.7596C221.227 19.6996 221.287 19.6996 221.467 19.5796C221.107 20.0596 220.867 20.4796 220.507 20.8996C220.807 20.6596 221.047 20.3596 221.347 20.0596C222.187 19.1596 223.087 18.3796 224.227 17.8996C224.227 18.0796 224.167 18.2596 224.167 18.4996C224.647 18.1996 225.067 18.0196 225.427 17.7796C226.387 17.1196 227.347 16.6996 228.367 16.4596C229.087 16.2796 229.327 16.3996 229.327 17.1196C229.327 18.6196 228.727 20.1196 227.827 21.6196C226.927 23.2396 225.907 24.7996 224.587 26.2396C222.907 28.0996 220.987 29.7796 218.587 30.8596ZM224.287 28.4596C224.167 28.5796 223.987 28.5796 223.687 28.6396C224.827 27.3196 225.907 26.2396 226.807 25.0996C227.647 23.9596 228.307 22.7596 229.207 21.4996C229.207 21.4996 229.327 21.4996 229.447 21.4996C228.367 24.1996 226.447 26.4196 224.287 28.4596ZM227.047 28.9396C227.467 28.2796 228.067 27.7996 228.727 27.3796C228.187 27.9196 227.707 28.5796 227.047 28.9396ZM234.547 20.7796C234.607 20.5396 234.727 20.2396 234.727 19.8196C234.427 20.2396 234.427 20.5396 234.547 20.8396V20.7796ZM234.067 21.2596C233.527 22.4596 232.867 23.5396 232.087 24.6196C231.907 24.8596 231.787 25.0996 231.667 25.3996C232.387 24.6796 232.927 23.8396 233.347 22.9996C233.707 22.2796 234.187 21.5596 234.547 20.8396C234.307 20.8396 234.127 21.0196 234.067 21.2596ZM229.507 28.0996C230.107 27.4396 230.827 26.7196 231.187 25.8796C230.587 26.5996 229.987 27.3196 229.387 27.9796C229.387 28.0396 229.447 28.0396 229.507 28.0996ZM228.667 28.7596C228.487 28.8196 228.367 28.8196 228.247 28.8796C228.427 29.1196 228.427 29.0596 228.667 28.7596ZM217.387 25.2796C217.447 25.2796 217.507 25.2796 217.567 25.2796C217.987 24.5596 218.527 23.8396 218.947 23.0596C219.127 22.8196 219.247 22.5196 219.487 22.2196C219.007 22.8196 218.527 23.4196 218.167 24.0196C217.867 24.3796 217.627 24.8596 217.387 25.2796ZM219.487 22.2196C219.487 22.1596 219.487 22.1596 219.547 22.0996H219.487C219.487 22.1596 219.487 22.1596 219.487 22.2196ZM216.607 27.2596C216.607 27.2596 216.667 27.2596 216.727 27.2596C216.787 27.0196 216.967 26.7196 217.027 26.4196C217.027 26.4196 216.967 26.4196 216.907 26.4196C216.847 26.7196 216.667 27.0196 216.607 27.2596ZM220.447 21.0196V20.9596C220.447 21.0196 220.387 21.0196 220.387 21.0196C220.447 21.0196 220.447 21.0196 220.447 21.0196ZM219.607 22.0396C219.967 21.7396 220.267 21.4396 220.387 21.0196C220.027 21.2596 219.727 21.6196 219.607 22.0396ZM219.547 22.0996C219.547 22.0996 219.547 22.0996 219.607 22.0396C219.607 22.0396 219.547 22.0996 219.487 22.0996H219.547Z" fill="url(#paint9_linear_1126_7797)"/>
<path d="M250.091 28.6396C249.971 28.7596 249.791 28.8796 249.551 29.0596C250.271 27.7996 250.271 27.7996 249.911 27.5596C249.611 27.7996 249.311 28.0396 249.011 28.2796C248.951 27.8596 249.791 27.4396 249.251 27.0796C248.711 27.5596 248.231 28.0396 247.511 28.2796C247.751 27.6796 248.411 27.3196 248.471 26.6596C248.171 26.8396 247.991 26.9596 247.751 27.0796C247.091 27.4996 246.491 28.0396 245.771 28.3396C244.331 29.0596 242.831 29.7796 241.331 30.3796C240.671 30.6796 239.951 30.7996 239.291 30.9196C239.111 30.9796 238.751 30.9196 238.751 30.7996C238.751 30.1996 238.751 29.5396 238.871 28.9396C238.991 28.3996 239.351 27.9196 239.651 27.3796C241.511 23.8996 244.271 20.8996 247.571 18.4396C247.751 18.2596 247.991 18.1396 248.231 18.0196C248.051 18.4396 247.691 18.8596 247.331 19.2196C246.971 19.6396 246.551 19.9996 246.671 20.6596C246.971 20.4196 247.211 20.2396 247.331 20.0596C247.931 19.4596 248.471 18.8596 249.011 18.2596C249.191 18.0796 249.311 17.8396 249.731 17.8996C249.311 18.3796 249.011 18.7996 248.651 19.2196C248.171 19.6996 247.691 20.1796 247.091 20.7196C246.851 20.9596 246.851 21.1396 247.151 21.3196C247.331 21.1996 247.571 21.0796 247.811 20.9596C247.931 21.4996 248.771 20.9596 248.831 21.5596C249.431 21.4396 249.971 21.0196 250.511 20.5996C250.511 20.5996 250.511 20.5996 250.511 20.6596C250.511 20.5996 250.571 20.5996 250.571 20.5396C250.571 20.5996 250.571 20.5996 250.511 20.5996C250.751 20.3596 250.931 20.1196 251.111 19.9396C251.831 19.1596 252.611 18.3796 253.331 17.5996C254.291 16.4596 254.411 15.8596 253.751 14.9596C253.331 14.4796 252.911 13.9396 252.311 13.6396C251.531 13.1596 250.691 12.6796 249.551 12.9196C249.131 13.0396 248.591 13.1596 248.111 13.3396C246.311 13.9996 244.631 15.0796 243.071 16.3396C239.951 18.8596 237.251 21.6796 235.451 25.0996C234.611 26.7196 234.011 28.3396 234.191 29.8996C234.431 31.8796 235.331 33.3796 237.371 33.7996C237.911 33.9796 238.511 34.0996 239.051 34.0996C239.711 34.1596 240.491 34.1596 241.271 34.0396C241.571 34.0396 241.931 33.7996 242.291 33.6796C243.731 33.1996 245.111 32.5996 246.551 31.7596C246.971 31.5796 247.391 31.3996 247.751 31.0996C248.111 30.7396 248.351 30.3796 248.831 30.4396C248.891 30.4396 249.071 30.3196 249.071 30.2596C249.251 29.6596 249.791 29.3596 250.151 28.9396C250.271 28.6996 250.451 28.5196 250.511 28.3396C250.331 28.3996 250.211 28.5196 250.091 28.6396ZM252.371 17.9596C252.431 17.9596 252.491 18.0196 252.491 18.0796C252.191 18.4396 251.831 18.7996 251.411 19.1596C251.351 19.1596 251.351 19.0996 251.351 19.0396C251.711 18.6796 252.011 18.3196 252.371 17.9596ZM250.931 19.4596C250.991 19.4596 250.991 19.5196 251.051 19.5196C250.871 19.6396 250.811 19.6996 250.751 19.7596C250.751 19.7596 250.691 19.7596 250.691 19.6996C250.751 19.6396 250.871 19.5796 250.931 19.4596ZM246.791 18.6796C244.331 20.7196 242.171 22.9396 240.371 25.5196C241.871 22.7596 244.091 20.5396 246.791 18.6796ZM241.211 23.2396C241.331 23.1196 241.391 22.9396 241.451 22.8196C242.351 21.8596 243.251 20.8996 244.151 19.9996C244.211 19.8796 244.451 19.7596 244.571 19.6996C244.451 19.8196 244.391 19.9396 244.271 20.0596C243.311 21.1396 242.291 22.2196 241.211 23.2396ZM245.111 19.3396C244.931 19.3996 244.811 19.5196 244.631 19.6396C244.751 19.5196 244.871 19.3396 244.931 19.2196C244.991 19.2796 245.051 19.2796 245.111 19.3396ZM245.591 15.9196C243.251 17.8396 241.091 19.5796 239.171 21.6796C240.071 19.9996 243.791 16.5796 245.591 15.9196ZM240.371 22.4596C240.311 22.3996 240.311 22.3996 240.251 22.3396C240.911 21.4996 241.571 20.7196 242.411 19.9996C242.411 20.0596 242.411 20.0596 242.471 20.1196C241.811 20.8996 241.031 21.6796 240.371 22.4596ZM251.531 19.8796C251.231 20.1196 250.871 20.3596 250.571 20.5396C251.051 20.4196 251.111 20.3596 251.531 19.8796ZM253.211 18.1396C253.271 18.1996 253.271 18.1996 253.331 18.1996C253.511 18.0196 253.631 17.7796 253.811 17.5396C253.751 17.5396 253.751 17.5396 253.691 17.5396C253.511 17.7196 253.391 17.9596 253.211 18.1396ZM252.251 19.3396C252.311 19.2796 252.371 19.2196 252.491 19.0996C252.431 19.0996 252.431 19.0396 252.371 19.0396C252.311 19.0996 252.191 19.2196 252.131 19.2796C252.191 19.3396 252.191 19.3396 252.251 19.3396Z" fill="url(#paint10_linear_1126_7797)"/>
<path d="M276.934 13.8796C276.874 13.5196 276.514 13.2196 276.274 12.9196C276.154 12.6196 275.914 12.4996 275.494 12.4996C275.254 12.4396 275.014 12.2596 274.774 12.0796C274.414 12.0196 273.874 12.3196 273.574 11.9596C273.394 12.1396 273.274 12.3196 273.034 12.4996C272.914 12.3196 272.854 12.1396 272.734 11.9596C272.494 12.0796 272.374 12.1996 272.134 12.3196C272.314 12.5596 272.434 12.6796 272.614 12.8596C272.374 12.9796 272.074 13.0996 271.954 13.2196C271.594 13.6396 271.234 13.7596 270.754 13.8796C270.514 13.9396 270.274 14.1196 270.034 14.2996C269.134 14.8996 268.354 15.4996 267.454 16.0996C266.374 16.8796 265.294 17.6596 264.154 18.4996C264.034 18.5596 263.914 18.6196 263.794 18.6796C263.914 18.3796 264.034 18.1996 264.274 17.9596C264.874 17.2996 265.594 16.7596 266.374 16.2796C266.734 16.0396 267.214 15.7396 267.334 15.3196C267.094 15.1396 266.974 15.3196 266.734 15.4396C266.134 15.9196 265.474 16.3396 264.694 16.8796C264.814 16.5196 264.934 16.3396 264.994 16.1596C265.354 15.5596 265.654 14.9596 265.954 14.3596C267.274 11.8996 268.594 9.37964 269.854 6.91964C269.974 6.61964 270.094 6.37964 270.214 6.07964C270.034 6.13964 269.914 6.25964 269.914 6.31964C268.714 8.53964 267.574 10.7596 266.374 13.0396C265.714 14.2996 265.054 15.5596 264.334 16.8196C264.214 17.0596 264.094 17.3596 263.734 17.4796C263.854 17.2396 263.914 17.0596 264.034 16.8796C265.474 13.9996 267.094 11.0596 268.534 8.17964C269.014 7.33964 269.434 6.43963 269.854 5.53964C269.914 5.35963 269.974 5.05963 269.674 5.05963C269.494 5.11964 269.494 5.11964 269.434 4.93964C269.254 4.63964 269.134 4.27963 268.594 4.27963C268.414 4.57964 268.114 4.93964 267.934 5.23964C267.814 5.11964 267.874 4.99964 267.874 4.87964C267.934 4.69964 268.054 4.57964 267.994 4.45964C267.934 4.27963 267.874 4.03964 267.754 4.03964C267.634 3.97963 267.334 4.15964 267.214 4.21964C267.094 4.27963 267.034 4.39964 266.974 4.45964C266.854 4.57964 266.614 4.63964 266.494 4.69964C266.494 4.57964 266.494 4.45964 266.494 4.33964C266.434 4.27963 266.374 4.21964 266.314 4.15964C266.074 3.91964 265.834 3.91964 265.534 4.21964C265.114 4.63964 264.694 5.05963 264.394 5.53964C263.554 6.97964 262.654 8.41963 261.934 9.85964C258.034 17.4796 254.794 25.2796 251.794 33.0796C251.614 33.6796 251.434 34.2796 251.194 34.8796C250.714 36.0796 250.354 37.3396 250.234 38.5396C250.234 38.7196 250.294 39.1396 250.414 39.1396C250.954 39.0796 251.134 39.6196 251.614 39.7396C251.914 39.4996 252.274 39.3796 252.334 38.8996C252.334 38.8396 252.694 38.6596 252.754 38.7196C252.934 39.0796 253.474 38.7196 253.714 39.0196C254.134 38.7196 254.314 38.4796 254.254 37.9996C254.254 37.6996 254.314 37.3396 254.494 36.9796C254.914 35.8396 255.334 34.6996 255.874 33.5596C256.654 31.7596 257.494 30.0196 258.334 28.2196C258.394 28.0396 258.454 27.7996 258.814 27.7996C258.214 29.1196 257.614 30.4396 257.014 31.6996C257.854 30.4396 258.274 29.0596 259.114 27.7996C259.474 28.1596 259.474 28.1596 259.594 28.5796C259.774 29.2396 260.014 29.8996 260.314 30.4996C260.794 31.6996 261.694 32.6596 262.594 33.5596C263.794 34.8796 265.414 35.6596 267.394 35.7796C268.294 35.8396 268.474 35.7196 269.134 34.9396C269.194 34.8196 269.314 34.6996 269.374 34.6396C269.434 34.5796 269.374 34.5196 269.374 34.4596C269.254 34.5796 269.074 34.6396 268.834 34.7596C268.954 34.3396 269.374 33.9196 268.834 33.7396C268.654 33.7996 268.474 33.9196 268.234 34.0396C268.234 33.7996 268.294 33.5596 268.354 33.3196C267.934 33.4396 267.574 33.5596 267.214 33.6196C267.274 33.3196 267.334 33.1396 267.394 32.8996C267.094 33.0196 266.794 33.1396 266.434 33.2596C266.074 32.8396 265.654 32.4796 265.294 31.9996C264.514 31.0396 264.094 29.8996 263.854 28.6396C263.794 28.0996 263.494 27.5596 263.854 26.8396C263.914 26.7796 263.914 26.7196 263.854 26.5396C264.094 26.5996 264.214 26.5996 264.394 26.5996C264.214 26.7796 264.214 26.8996 264.034 27.0796C264.454 26.8996 264.754 26.7196 265.054 26.5996C265.354 26.4196 265.654 26.2396 265.894 26.1196H265.954C266.134 25.9996 266.314 25.9996 266.434 25.8796C267.034 25.5196 267.634 25.0996 268.294 24.7396C268.474 24.6196 268.714 24.5596 268.954 24.4396C269.134 24.2596 269.254 23.9596 269.434 23.7796C271.294 22.6396 272.854 21.1996 274.294 19.5196C274.654 19.0996 274.894 18.5596 275.194 18.0796C275.374 17.9596 275.494 17.8396 275.614 17.7196C275.794 17.4196 275.974 17.0596 276.154 16.6996C276.874 15.7396 277.174 14.7796 276.934 13.8796ZM274.894 15.9196C275.014 16.4596 275.014 16.4596 273.694 18.3196C273.874 18.3796 274.054 18.4396 274.174 18.4996C273.634 18.4996 273.214 18.6796 272.854 19.2196C272.614 19.5196 272.374 19.7596 272.074 19.9996C271.774 20.2396 271.414 20.4796 271.054 20.6596C271.294 20.2996 271.654 19.9396 271.954 19.5796C272.254 19.1596 272.674 18.7396 273.034 18.3196C273.394 17.9596 273.754 17.5396 273.994 17.1196C274.294 16.6396 274.474 16.2796 274.894 15.9196ZM271.834 15.0196C271.654 15.1396 271.594 15.2596 271.414 15.4396C271.234 15.3796 271.114 15.3796 270.814 15.3796C271.234 14.8996 271.534 15.0196 271.834 15.0196ZM267.274 18.0796C267.214 18.3796 266.914 18.4996 266.674 18.4996C266.914 18.3796 267.094 18.1996 267.274 18.0796ZM266.674 18.5596C266.674 18.6796 266.614 18.7996 266.554 18.7996C266.014 19.2196 265.474 19.6396 264.934 19.9396C265.414 19.3396 266.074 18.9196 266.674 18.5596ZM264.454 20.2396C264.394 20.2996 264.454 20.2996 264.514 20.3596C264.454 20.4196 264.334 20.4796 264.214 20.5396C264.154 20.5396 264.214 20.4796 264.214 20.4796C264.274 20.4196 264.334 20.2996 264.454 20.2396ZM253.294 33.0196C252.994 33.8596 252.574 34.6396 252.274 35.4796C252.154 35.8396 251.974 36.1996 252.034 36.4996C251.974 37.1596 251.434 37.5796 251.014 38.1796C251.134 37.2196 251.374 36.3796 251.614 35.5396C252.094 34.2796 252.514 33.0796 253.054 31.8196C253.354 31.1596 253.774 30.4396 254.074 29.7796C254.854 28.0396 255.514 26.3596 256.294 24.6796C257.314 22.2796 258.394 19.9396 259.414 17.5996C259.654 17.1196 259.834 16.5796 260.074 16.0996C260.254 15.6796 260.434 15.3196 260.614 14.9596C261.034 14.3596 261.214 13.6996 261.454 13.0996C261.754 12.4396 262.114 11.7796 262.474 11.1196C262.894 10.3996 263.314 9.73964 263.734 9.01964C263.914 8.71964 263.914 8.41963 264.094 8.11963C264.214 7.81963 264.274 7.45964 264.454 7.27963C264.874 6.97964 265.054 6.55964 265.234 6.19963C265.354 6.01964 265.534 5.77964 265.714 5.59964C265.774 5.59964 265.834 5.59964 265.894 5.59964C265.894 5.77964 265.954 5.95964 265.894 6.07964C264.274 8.29964 263.134 10.6996 261.994 13.0996C260.134 16.9996 258.334 20.8996 256.594 24.7996C255.394 27.4996 254.194 30.2596 253.294 33.0196ZM252.754 37.3996C252.694 37.2796 252.634 37.2796 252.634 37.2196C252.754 36.6196 252.814 36.0196 253.114 35.4196C253.594 34.5196 253.834 33.6196 254.194 32.6596C254.314 32.2996 254.494 31.9396 254.674 31.5796C255.334 30.2596 255.934 28.9996 256.594 27.6796C255.334 30.9196 254.074 34.0996 252.754 37.3996ZM257.734 28.5196C256.654 31.0396 255.574 33.6196 254.494 36.1396C254.314 36.4396 254.314 36.7996 254.134 37.0996C254.134 37.2796 254.014 37.4596 253.894 37.6996C253.774 37.6396 253.714 37.6396 253.654 37.6396C253.714 37.4596 253.774 37.2796 253.774 37.0996C254.014 36.4996 254.194 35.8996 254.434 35.2996C254.734 34.7596 254.794 34.1596 255.154 33.6196C255.634 32.7796 255.934 31.9396 256.294 31.1596C256.834 30.0196 257.314 28.8796 257.854 27.7996C257.854 27.7396 257.914 27.6796 258.034 27.4996C258.034 27.9196 257.854 28.2196 257.734 28.5196ZM261.394 20.7796C261.334 20.7796 261.274 20.7196 261.274 20.7196C261.334 20.5996 261.454 20.4796 261.514 20.3596C261.514 20.3596 261.574 20.3596 261.634 20.3596C261.514 20.5396 261.514 20.6596 261.394 20.7796ZM259.774 20.8396C261.934 16.1596 264.214 11.5396 266.914 6.79964C266.914 7.03963 266.914 7.15964 266.914 7.15964C264.574 11.7196 262.174 16.2796 259.774 20.8396ZM262.414 18.4396C264.454 14.5996 266.434 10.7596 268.474 6.85964C268.594 6.79964 268.714 6.67964 268.834 6.55964C268.654 7.21964 262.954 18.0196 262.474 18.4996C262.414 18.4996 262.354 18.4996 262.414 18.4396ZM262.534 19.6396C262.774 19.3396 262.954 19.0996 263.134 18.7396C263.074 19.2796 263.074 19.2796 262.534 19.6396ZM261.574 22.9396C261.934 21.9796 262.714 21.5596 263.494 21.0796C263.254 21.4996 262.114 22.5796 261.574 22.9396ZM264.574 24.2596C264.274 24.4396 263.914 24.5596 263.614 24.6796C263.434 24.6196 263.494 24.4996 263.614 24.2596C263.854 24.1396 264.214 23.9596 264.514 23.8396C264.634 23.7796 264.694 23.8996 264.814 23.9596C264.754 24.0196 264.694 24.1996 264.574 24.2596ZM263.254 24.2596C263.254 24.1996 263.254 24.1396 263.254 24.0796C263.374 24.1396 263.494 24.1996 263.554 24.2596C263.434 24.2596 263.374 24.2596 263.254 24.2596ZM264.934 22.8796C264.574 23.1196 264.214 23.3596 263.854 23.5396C263.554 23.6596 263.254 23.8996 263.014 23.8996C262.774 23.8396 262.414 23.8396 262.114 23.8396C261.874 23.7796 261.874 23.1196 262.054 22.8796C262.174 22.7596 262.354 22.5796 262.534 22.3996C263.674 21.4996 264.874 20.5996 266.014 19.6396C266.914 18.9796 267.754 18.3196 268.654 17.5996C268.594 17.4796 268.474 17.3596 268.414 17.1196C268.714 16.8796 269.014 16.6396 269.314 16.3996C269.734 16.1596 270.094 15.9196 270.514 15.7396C270.874 15.5596 271.174 15.6796 271.414 15.4396C271.714 15.6796 272.074 15.6796 272.374 15.1996C272.194 15.1396 272.074 15.0796 271.894 14.9596C272.194 14.5396 272.554 14.2996 273.094 14.4196C272.854 15.4396 272.494 16.3396 271.774 17.1196C271.654 17.2996 271.594 17.4796 271.474 17.6596C271.414 17.7796 271.354 17.8996 271.294 18.0196C269.794 19.2196 268.474 20.5396 266.974 21.5596C266.314 22.0396 265.594 22.4596 264.934 22.8796ZM264.694 26.4796C264.694 26.2996 264.694 26.1196 264.694 25.8796C264.754 25.8796 264.994 25.7596 264.994 25.8196C265.054 26.1196 265.414 25.9996 265.714 25.9996C265.774 25.9996 265.894 26.0596 265.894 26.1196C265.534 26.2396 265.114 26.3596 264.694 26.4796ZM267.214 24.7996C267.154 24.7396 267.094 24.6196 267.034 24.5596C267.094 24.4996 267.154 24.4396 267.154 24.4396C267.274 24.4996 267.334 24.5596 267.394 24.6196C267.334 24.6796 267.334 24.7396 267.214 24.7996ZM267.754 24.3796C267.694 24.3196 267.754 24.2596 267.694 24.1996C267.814 24.1996 267.874 24.1396 267.994 24.0796L268.054 24.1996C267.994 24.2596 267.814 24.3196 267.754 24.3796ZM268.894 21.4996C268.234 21.9796 267.454 22.3996 266.734 22.8796C266.434 23.1196 265.834 23.1796 265.774 23.6596C265.774 23.7196 265.474 23.7796 265.294 23.8396C265.414 23.2996 265.774 23.0596 266.134 22.8796C267.574 22.0396 268.894 21.0796 270.034 19.9396C270.994 18.9196 271.774 17.8396 272.674 16.8196C273.214 16.2196 273.454 16.1596 274.054 16.5796C273.214 16.6396 273.094 17.2396 272.794 17.5996C272.194 18.4996 271.594 19.2796 270.754 19.9396C270.154 20.4796 269.554 21.0196 268.894 21.4996ZM268.534 24.1396C268.594 23.6596 268.594 23.6596 269.074 23.4796C269.074 23.7796 268.894 24.0196 268.534 24.1396ZM269.134 23.4196C269.374 23.0596 269.794 22.9396 270.154 22.6996C269.914 23.1196 269.554 23.3596 269.134 23.4196ZM274.714 18.6196C273.814 19.8196 272.794 20.8996 271.534 21.8596C271.414 21.9796 271.294 22.0996 271.114 22.2796C270.994 22.4596 270.994 22.4596 270.394 22.4596C270.814 22.0996 271.234 21.7396 271.654 21.3796C271.894 21.1396 272.074 20.8996 272.254 20.6596C272.254 20.5996 272.314 20.5396 272.374 20.4796C273.214 19.9996 273.694 19.2196 274.234 18.4996C274.354 18.3796 274.474 18.1996 274.534 18.0796C274.774 17.8996 274.954 17.6596 275.134 17.4196C275.134 17.4796 275.194 17.4796 275.254 17.4796C275.254 17.6596 275.194 17.8996 275.194 18.0796C275.014 18.2596 274.894 18.3796 274.714 18.6196ZM268.234 14.9596C268.714 14.4196 269.254 14.1796 269.794 13.9396C269.854 13.9396 269.854 13.8196 269.974 13.6996C269.854 13.6396 269.734 13.5796 269.734 13.5796C269.134 13.9396 268.594 14.1796 268.054 14.5396C267.754 14.7196 267.334 14.8396 267.334 15.3196C267.634 15.1996 268.054 15.1396 268.234 14.9596ZM272.074 12.3196C271.474 12.5596 270.994 12.7396 270.454 12.9796C270.694 13.1596 270.934 13.2796 271.114 13.3996C271.354 13.0996 271.654 12.7996 272.074 12.3196ZM273.154 11.6596C273.334 11.7796 273.454 11.8996 273.574 11.9596C273.634 11.8396 273.694 11.7796 273.814 11.5996C273.574 11.5996 273.394 11.6596 273.154 11.6596ZM255.154 36.1996H255.214C255.274 36.0796 255.274 36.0196 255.274 35.9596C255.214 36.0196 255.214 36.1396 255.154 36.1996ZM270.514 15.9796C270.274 16.1596 270.034 16.3396 269.734 16.5796C270.274 16.6996 270.274 16.6996 270.514 15.9796Z" fill="url(#paint11_linear_1126_7797)"/>
<defs>
<linearGradient id="paint0_linear_1126_7797" x1="0.249268" y1="0.292969" x2="13.7576" y2="85.7028" gradientUnits="userSpaceOnUse">
<stop stop-color="#FF6CAB"/>
<stop offset="1" stop-color="#8533FF"/>
</linearGradient>
<linearGradient id="paint1_linear_1126_7797" x1="0.249268" y1="0.292969" x2="13.7576" y2="85.7028" gradientUnits="userSpaceOnUse">
<stop stop-color="#FF6CAB"/>
<stop offset="1" stop-color="#8533FF"/>
</linearGradient>
<linearGradient id="paint2_linear_1126_7797" x1="0.249268" y1="0.292969" x2="13.7576" y2="85.7028" gradientUnits="userSpaceOnUse">
<stop stop-color="#FF6CAB"/>
<stop offset="1" stop-color="#8533FF"/>
</linearGradient>
<linearGradient id="paint3_linear_1126_7797" x1="0.249268" y1="0.292969" x2="13.7576" y2="85.7028" gradientUnits="userSpaceOnUse">
<stop stop-color="#FF6CAB"/>
<stop offset="1" stop-color="#8533FF"/>
</linearGradient>
<linearGradient id="paint4_linear_1126_7797" x1="0.249268" y1="0.292969" x2="13.7576" y2="85.7028" gradientUnits="userSpaceOnUse">
<stop stop-color="#FF6CAB"/>
<stop offset="1" stop-color="#8533FF"/>
</linearGradient>
<linearGradient id="paint5_linear_1126_7797" x1="0.249268" y1="0.292969" x2="13.7576" y2="85.7028" gradientUnits="userSpaceOnUse">
<stop stop-color="#FF6CAB"/>
<stop offset="1" stop-color="#8533FF"/>
</linearGradient>
<linearGradient id="paint6_linear_1126_7797" x1="0.249268" y1="0.292969" x2="13.7576" y2="85.7028" gradientUnits="userSpaceOnUse">
<stop stop-color="#FF6CAB"/>
<stop offset="1" stop-color="#8533FF"/>
</linearGradient>
<linearGradient id="paint7_linear_1126_7797" x1="0.249268" y1="0.292969" x2="13.7576" y2="85.7028" gradientUnits="userSpaceOnUse">
<stop stop-color="#FF6CAB"/>
<stop offset="1" stop-color="#8533FF"/>
</linearGradient>
<linearGradient id="paint8_linear_1126_7797" x1="0.249268" y1="0.292969" x2="13.7576" y2="85.7028" gradientUnits="userSpaceOnUse">
<stop stop-color="#FF6CAB"/>
<stop offset="1" stop-color="#8533FF"/>
</linearGradient>
<linearGradient id="paint9_linear_1126_7797" x1="0.249268" y1="0.292969" x2="13.7576" y2="85.7028" gradientUnits="userSpaceOnUse">
<stop stop-color="#FF6CAB"/>
<stop offset="1" stop-color="#8533FF"/>
</linearGradient>
<linearGradient id="paint10_linear_1126_7797" x1="0.249268" y1="0.292969" x2="13.7576" y2="85.7028" gradientUnits="userSpaceOnUse">
<stop stop-color="#FF6CAB"/>
<stop offset="1" stop-color="#8533FF"/>
</linearGradient>
<linearGradient id="paint11_linear_1126_7797" x1="0.249268" y1="0.292969" x2="13.7576" y2="85.7028" gradientUnits="userSpaceOnUse">
<stop stop-color="#FF6CAB"/>
<stop offset="1" stop-color="#8533FF"/>
</linearGradient>
</defs>
</svg>
